HIERARCHY
ROOT Hips
{
	OFFSET	0.000000	0.000000	0.000000
	CHANNELS 6 Xposition Yposition Zposition Zrotation Xrotation Yrotation
	JOINT LeftUpLeg
	{
		OFFSET	7.620000	0.000000	0.000000
		CHANNELS 3 Zrotation Xrotation Yrotation
		JOINT LeftLeg
		{
			OFFSET	0.000000	-44.449999	0.000000
			CHANNELS 3 Zrotation Xrotation Yrotation
			JOINT LeftFoot
			{
				OFFSET	0.000000	-39.369997	0.000000
				CHANNELS 3 Zrotation Xrotation Yrotation
				JOINT LeftFootHeel
				{
					OFFSET	0.000000	-8.890000	-3.810000
					CHANNELS 3 Zrotation Xrotation Yrotation
					End Site
					{
						OFFSET	0.000000	0.000000	15.240000
					}
				}
			}
		}
	}
	JOINT RightUpLeg
	{
		OFFSET	-7.620000	0.000000	0.000000
		CHANNELS 3 Zrotation Xrotation Yrotation
		JOINT RightLeg
		{
			OFFSET	0.000000	-44.449999	0.000000
			CHANNELS 3 Zrotation Xrotation Yrotation
			JOINT RightFoot
			{
				OFFSET	0.000000	-39.369997	0.000000
				CHANNELS 3 Zrotation Xrotation Yrotation
				JOINT RightFootHeel
				{
					OFFSET	0.000000	-8.890000	-3.810000
					CHANNELS 3 Zrotation Xrotation Yrotation
					End Site
					{
						OFFSET	0.000000	0.000000	15.240000
					}
				}
			}
		}
	}
	JOINT Spine
	{
		OFFSET	0.000000	7.620000	-2.540000
		CHANNELS 3 Zrotation Xrotation Yrotation
		JOINT Spine1
		{
			OFFSET	0.000000	7.620000	0.000000
			CHANNELS 3 Zrotation Xrotation Yrotation
			JOINT LeftCollar
			{
				OFFSET	7.620000	33.020000	2.540000
				CHANNELS 3 Zrotation Xrotation Yrotation
				JOINT LeftShoulder
				{
					OFFSET	12.700000	0.000000	0.000000
					CHANNELS 3 Zrotation Xrotation Yrotation
					JOINT LeftForeArm
					{
						OFFSET	0.000000	-30.480000	0.000000
						CHANNELS 3 Zrotation Xrotation Yrotation
						JOINT LeftHand
						{
							OFFSET	0.000000	-24.129997	0.000000
							CHANNELS 3 Zrotation Xrotation Yrotation
							End Site
							{
								OFFSET	0.000000	-17.780000	0.000000
							}
						}
					}
				}
			}
			JOINT RightCollar
			{
				OFFSET	-7.620000	33.020000	2.540000
				CHANNELS 3 Zrotation Xrotation Yrotation
				JOINT RightShoulder
				{
					OFFSET	-12.700000	0.000000	0.000000
					CHANNELS 3 Zrotation Xrotation Yrotation
					JOINT RightForeArm
					{
						OFFSET	0.000000	-30.480000	0.000000
						CHANNELS 3 Zrotation Xrotation Yrotation
						JOINT RightHand
						{
							OFFSET	0.000000	-24.129997	0.000000
							CHANNELS 3 Zrotation Xrotation Yrotation
							End Site
							{
								OFFSET	0.000000	-17.780000	0.000000
							}
						}
					}
				}
			}
			JOINT Neck
			{
				OFFSET	0.000000	38.099997	2.540000
				CHANNELS 3 Zrotation Xrotation Yrotation
				JOINT Head
				{
					OFFSET	0.000000	16.510000	0.000000
					CHANNELS 3 Zrotation Xrotation Yrotation
					End Site
					{
						OFFSET	0.000000	10.159999	0.000000
					}
				}
			}
		}
	}
}
MOTION
Frames:     8
Frame Time: 0.016667
-17.498417	178.531871	99.914191	0.327475	-4.995104	-7.912903	0.219332	-11.851531	7.933715	-6.125799	31.060135	-8.765732	7.314064	-14.338666	-0.287932	0.	0.	0.	-3.539643	-15.070119	-20.736025	-13.632120	32.589752	31.728798	-0.895898	-15.747255	-14.392626	0.	0.	0.	-0.000000	0.000001	-0.000001	-0.600062	40.911152	-1.349303	-0.199579	-3.916495	-5.382941	-0.132150	-27.005709	-14.684760	-4.542810	-3.589802	-14.429308	17.986219	5.439234	-6.080451	3.104743	-3.265224	4.809449	-3.008345	-29.231936	13.786248	2.194656	-5.302714	2.852178	-12.230307	0.749703	9.351457	-2.090622	-2.465283	4.172567	-2.090624	-2.465282	4.172567	
-17.601989	178.655333	100.099228	0.510197	-4.993131	-7.768184	0.089969	-11.408310	7.913462	-6.172100	30.358913	-8.686255	7.196790	-14.117766	-0.577837	0.	0.	0.	-3.559951	-14.490996	-20.589851	-13.086220	31.792030	31.454655	-1.085911	-15.630209	-14.748155	0.	0.	0.	-0.000000	-0.000000	-0.000000	-0.598004	40.532417	-1.441660	-0.241198	-3.862300	-5.417366	0.358021	-26.159508	-14.431249	-4.885684	-4.242110	-14.316574	17.876003	4.931554	-6.346078	3.169043	-3.322577	4.640529	-3.286449	-28.551790	14.050686	2.290923	-5.891435	2.874663	-11.630067	0.656112	9.512844	-2.171086	-2.207062	4.184458	-2.171085	-2.207057	4.184457	
-17.759994	178.791933	100.245382	0.695973	-5.075497	-7.595654	-0.034013	-10.872999	7.981703	-6.099377	29.551609	-8.829791	6.958920	-13.650115	-0.708338	0.	0.	0.	-3.660126	-13.895813	-20.533195	-12.690511	31.050009	31.240974	-1.147865	-15.479242	-14.969374	0.	0.	0.	0.000001	0.000000	-0.000000	-0.513809	40.192120	-1.523911	-0.482122	-3.939332	-5.407702	0.912594	-25.200966	-14.341207	-5.121671	-4.937852	-14.262568	17.503267	4.478610	-6.685703	3.152061	-3.458473	4.295150	-3.556331	-27.850523	14.130046	2.453741	-6.363115	2.979547	-11.152220	0.546803	9.638718	-2.230172	-2.001030	4.088848	-2.230172	-2.001030	4.088849	
-17.895374	178.895803	100.320232	0.631266	-5.047992	-7.510565	0.072815	-10.601850	8.060542	-5.984758	29.011095	-8.920814	6.799508	-13.146060	-0.860369	0.	0.	0.	-3.483252	-13.380057	-20.415335	-12.187956	30.340691	30.760273	-1.354070	-15.267599	-14.976238	0.	0.	0.	0.000001	-0.000001	0.000000	-0.299461	39.666988	-1.560517	-0.662459	-3.906933	-5.305867	1.556629	-24.233196	-14.294934	-5.225258	-5.488510	-14.156188	16.883711	3.950270	-7.033513	3.223548	-3.473906	4.215549	-4.022668	-27.052032	13.900469	2.567496	-6.809122	3.010370	-10.736363	0.335933	9.689036	-2.279015	-1.785585	4.073056	-2.279015	-1.785589	4.073057	
-18.057643	179.011919	100.521867	0.592894	-4.948433	-7.426873	0.058421	-10.299617	8.262601	-5.581206	28.429869	-9.488527	6.675510	-12.659502	-0.865465	0.	0.	0.	-3.323745	-12.939286	-20.299322	-11.751740	29.666630	30.301468	-1.405430	-15.020744	-14.946636	0.	0.	0.	-0.000001	0.000001	0.000000	-0.166055	39.228882	-1.401533	-0.757560	-3.942113	-5.316912	2.231387	-23.499439	-14.007715	-5.166705	-5.782969	-14.216160	16.056984	3.477638	-7.157089	3.280893	-3.579348	3.936408	-4.462920	-26.350046	13.435239	2.613195	-7.186627	3.099871	-10.470567	-0.107441	9.706539	-2.281214	-1.561619	4.002308	-2.281214	-1.561618	4.002309	
-18.228265	179.099899	100.665143	0.551350	-4.764241	-7.370625	0.053204	-10.196091	8.376563	-5.184525	28.002998	-10.057941	6.525910	-12.237655	-0.842612	0.	0.	0.	-3.223158	-12.526001	-20.220623	-11.259011	28.964449	29.738743	-1.401752	-14.680488	-14.734609	0.	0.	0.	-0.000000	0.000001	-0.000002	0.089111	38.549885	-1.340592	-1.013647	-3.765476	-5.355483	2.896988	-22.905611	-13.456697	-5.010689	-6.014315	-14.070425	15.240403	3.196372	-7.479894	3.211438	-3.595315	3.814024	-4.831498	-25.654949	12.845997	2.582976	-7.414439	2.934937	-10.369558	-0.670767	9.763729	-2.324929	-1.345984	3.960481	-2.324928	-1.345987	3.960480	
-18.360446	179.173499	100.753674	0.665720	-4.605819	-7.327457	-0.128027	-10.093810	8.400824	-4.860496	27.504156	-10.505234	6.367557	-11.764631	-0.914394	0.	0.	0.	-3.255702	-12.234733	-20.119009	-10.841570	28.468769	29.118986	-1.421252	-14.397533	-14.440323	0.	0.	0.	0.000000	0.000000	-0.000001	0.159852	37.929024	-1.234068	-1.266223	-3.512371	-5.309360	3.763569	-22.456005	-12.636003	-4.941129	-6.116906	-13.920878	14.490779	3.055903	-7.947367	3.257498	-3.513394	3.824651	-5.733926	-25.062965	11.886970	2.708487	-7.682229	2.752509	-10.159231	-1.076175	9.575947	-2.373041	-1.070450	3.916005	-2.373041	-1.070451	3.916004	
-18.444242	179.311804	100.848213	0.714783	-4.419912	-7.199275	-0.273940	-9.890894	8.331647	-4.566752	26.798340	-10.769780	6.087025	-11.522291	-1.114632	0.	0.	0.	-3.259501	-11.831320	-20.107944	-10.366503	27.759760	28.576035	-1.211037	-14.193402	-14.253719	0.	0.	0.	-0.000001	0.000001	0.000000	0.373593	37.338108	-1.261024	-1.402043	-3.203197	-5.253644	4.542321	-22.265413	-11.622847	-4.589291	-6.002850	-13.422000	13.720081	2.884783	-8.464753	3.209092	-3.563390	3.605134	-6.412662	-24.399075	11.249457	2.539536	-7.771846	2.510280	-9.882833	-1.507289	9.331934	-2.395695	-0.864175	3.843699	-2.395695	-0.864173	3.843701	
